<svg width="39" height="38" viewBox="0 0 39 38" fill="none" xmlns="http://www.w3.org/2000/svg">
<mask id="mask0_99_80" style="mask-type:alpha" maskUnits="userSpaceOnUse" x="12" y="2" width="27" height="37">
<path d="M17.1297 2.71991C14.2615 2.6116 13.0132 5.47272 12.7477 6.91684C12.792 15.1753 12.8805 32.1796 12.8805 34.1292C12.8805 36.0787 15.2264 37.1977 16.2002 37.5138H28.948C30.1431 37.243 35.5874 35.6184 37.4465 29.3907C38.9337 24.4085 34.9678 20.6358 32.7988 19.3722C35.6671 16.9895 36.5613 13.7763 36.6497 12.4676C37.2871 5.21097 31.161 2.94559 28.0184 2.71991C25.584 2.76503 19.998 2.82822 17.1297 2.71991Z" fill="black" stroke="black"/>
</mask>
<g mask="url(#mask0_99_80)">
<path d="M35.3217 2.71692H10.0918V5.96611H35.3217V2.71692Z" fill="#181F47"/>
<path d="M37.712 7.86151H20.715V11.1108H37.712V7.86151Z" fill="#181F47"/>
<path d="M37.712 13.0061H25.4954V16.2553H37.712V13.0061Z" fill="#181F47"/>
<path d="M36.9152 18.0154H3.45239V21.2646H36.9152V18.0154Z" fill="#181F47"/>
<path d="M39.571 23.5662H21.5117V26.8154H39.571V23.5662Z" fill="#181F47"/>
<path d="M39.0399 28.7108H24.1675V31.96H39.0399V28.7108Z" fill="#181F47"/>
<path d="M36.9152 34.3969H10.8885V37.6461H36.9152V34.3969Z" fill="#181F47"/>
</g>
<path d="M0 18.0154H16.2003V21.2646H1.59721L0 18.0154Z" fill="#181F47"/>
<path d="M3.59745 26.68L2.39026 23.7015H9.02973L7.7363 26.68H3.59745Z" fill="#181F47"/>
<path d="M5.1095 37.5108L4.13379 28.8461H7.4362L6.68565 37.5108H5.1095Z" fill="#181F47"/>
<path d="M1.16182 10.1385C0.0413587 12.4948 1.95551 14.6221 3.05265 15.3912C1.91486 13.1066 2.96405 10.9593 3.11238 10.6765C3.11238 10.6765 4.77245 8.34952 5.56855 6.26765C6.39019 4.11887 5.81569 1.65338 5.46187 0.702881C5.18873 2.36823 4.41475 5.96825 3.50408 7.04553C2.59339 8.12287 1.56312 9.5564 1.16182 10.1385Z" fill="#181F47"/>
<path d="M6.42956 8.54978C7.57675 7.12178 7.35416 4.2385 7.09949 2.97534C7.41626 3.50626 8.04327 5.11072 8.01716 7.2813C7.98443 9.99462 7.00988 11.0153 6.2143 12.2529C5.5778 13.243 5.59276 15.3167 5.67981 16.2298C5.33478 16.0317 4.53985 15.244 4.12007 13.6779C3.59534 11.7203 4.99552 10.3348 6.42956 8.54978Z" fill="#181F47"/>
<path d="M8.22002 11.8697C7.13593 13.3027 6.94005 15.4246 6.97459 16.0857C9.73739 14.9207 10.1413 13.6486 10.5488 11.1695C10.8748 9.18631 10.1664 7.14543 9.77143 6.37292C10.249 7.7228 9.24246 10.5182 8.22002 11.8697Z" fill="#181F47"/>
</svg>
