<svg width="125" height="44" viewBox="0 0 125 44" fill="none" xmlns="http://www.w3.org/2000/svg">
<g clip-path="url(#clip0_28_58)">
<path d="M51.2204 22.0677V10.1799H57.8836C58.495 10.1799 59.0447 10.3012 59.5321 10.5438C60.0306 10.7864 60.4217 11.1272 60.7048 11.5662C60.988 12.0052 61.1295 12.5193 61.1295 13.1085C61.1295 13.5822 61.0447 14.0038 60.875 14.3735C60.7048 14.7432 60.4724 15.0494 60.1777 15.292C59.8946 15.5346 59.5718 15.7137 59.2094 15.8292V15.8985C59.6396 15.9909 60.0196 16.1642 60.3479 16.4184C60.6878 16.6725 60.9543 17.0018 61.1466 17.4062C61.3509 17.7989 61.4528 18.2668 61.4528 18.8098C61.4528 19.5261 61.2882 20.1268 60.9599 20.6121C60.6426 21.0973 60.2174 21.4612 59.6853 21.7038C59.1526 21.9464 58.5577 22.0677 57.9001 22.0677H51.2204ZM53.753 19.9536H57.4076C57.8268 19.9536 58.1667 19.8322 58.4272 19.5896C58.6993 19.347 58.8354 18.9716 58.8354 18.4632C58.8354 18.1629 58.7786 17.9029 58.6652 17.6834C58.5517 17.4639 58.382 17.2964 58.1551 17.1809C57.9287 17.0538 57.6396 16.9903 57.2887 16.9903H53.753V19.9536ZM53.753 14.9801H57.1185C57.4242 14.9801 57.6792 14.9223 57.8836 14.8068C58.0989 14.6797 58.257 14.518 58.3595 14.3216C58.4724 14.1136 58.5291 13.8768 58.5291 13.6111C58.5291 13.1605 58.4046 12.8197 58.1551 12.5886C57.9172 12.3576 57.5999 12.242 57.2033 12.242H53.753V14.9801Z" fill="#181F47"/>
<path d="M66.1727 22.2757C65.266 22.2757 64.5462 22.0215 64.014 21.5131C63.4814 21.0048 63.2148 20.1846 63.2148 19.0524V12.9525H65.5778V18.6538C65.5778 18.9542 65.6114 19.2083 65.6797 19.4163C65.7475 19.6127 65.8439 19.7745 65.9684 19.9015C66.1044 20.0286 66.2686 20.121 66.4613 20.1788C66.6541 20.2366 66.8695 20.2654 67.1074 20.2654C67.4583 20.2654 67.7761 20.1788 68.0592 20.0055C68.3424 19.8322 68.5632 19.5954 68.7219 19.295C68.8805 18.9831 68.9598 18.6365 68.9598 18.2552V12.9525H71.3228V22.0677H69.385L69.2148 20.82H69.0959C68.8805 21.1088 68.6255 21.363 68.3313 21.5824C68.0477 21.802 67.7249 21.9695 67.3624 22.085C66.9995 22.2121 66.6029 22.2757 66.1727 22.2757Z" fill="#181F47"/>
<path d="M77.1115 22.2757C76.488 22.2757 75.9272 22.2064 75.4287 22.0677C74.9302 21.9291 74.5055 21.7385 74.1541 21.4959C73.8027 21.2417 73.5306 20.9413 73.3384 20.5947C73.1566 20.2482 73.0663 19.8554 73.0663 19.4164C73.0663 19.3702 73.0663 19.324 73.0663 19.2777C73.0663 19.2315 73.0718 19.1969 73.0834 19.1737H75.361C75.361 19.1969 75.361 19.2199 75.361 19.2431C75.361 19.2662 75.361 19.2893 75.361 19.3124C75.372 19.6012 75.4629 19.838 75.6325 20.0229C75.8027 20.1962 76.0236 20.3233 76.2957 20.4041C76.5788 20.485 76.8735 20.5254 77.1792 20.5254C77.4513 20.5254 77.7119 20.5023 77.9614 20.4561C78.2219 20.3984 78.4373 20.3001 78.6074 20.1615C78.7887 20.0229 78.879 19.8438 78.879 19.6243C78.879 19.347 78.7656 19.1333 78.5392 18.9831C78.3238 18.8329 78.0347 18.7116 77.6722 18.6192C77.3208 18.5268 76.9358 18.4228 76.5166 18.3073C76.131 18.2149 75.746 18.1109 75.361 17.9954C74.9754 17.8683 74.6245 17.7065 74.3067 17.5101C74.001 17.3138 73.7515 17.0596 73.5593 16.7477C73.3665 16.4242 73.2701 16.0198 73.2701 15.5346C73.2701 15.061 73.372 14.6508 73.5763 14.3042C73.7801 13.9461 74.0578 13.6515 74.4092 13.4204C74.7716 13.1894 75.1908 13.0219 75.6667 12.9179C76.1541 12.8024 76.6752 12.7446 77.2304 12.7446C77.752 12.7446 78.239 12.8024 78.6923 12.9179C79.1456 13.0219 79.5422 13.1836 79.882 13.4031C80.2219 13.6111 80.4885 13.8768 80.6807 14.2003C80.8735 14.5122 80.9699 14.8646 80.9699 15.2573C80.9699 15.3382 80.9699 15.4133 80.9699 15.4826C80.9699 15.5519 80.9644 15.5982 80.9528 15.6213H78.6923V15.4826C78.6923 15.2747 78.63 15.1014 78.505 14.9627C78.3805 14.8126 78.1993 14.6971 77.9614 14.6162C77.735 14.5353 77.4568 14.4949 77.1285 14.4949C76.9021 14.4949 76.6923 14.5122 76.4995 14.5468C76.3183 14.5815 76.1597 14.6335 76.0236 14.7028C75.8876 14.7721 75.7801 14.8588 75.7008 14.9627C75.6325 15.0552 75.5989 15.1707 75.5989 15.3093C75.5989 15.5057 75.6782 15.6675 75.8369 15.7945C76.0065 15.9101 76.2274 16.0083 76.4995 16.0891C76.7716 16.17 77.0718 16.2566 77.4006 16.3491C77.8083 16.4646 78.2334 16.5801 78.6752 16.6957C79.1285 16.7996 79.5477 16.9441 79.9327 17.1289C80.3183 17.3138 80.63 17.5795 80.868 17.926C81.1059 18.2611 81.2249 18.7174 81.2249 19.2951C81.2249 19.8496 81.117 20.3175 80.9016 20.6987C80.6978 21.08 80.4086 21.3861 80.0352 21.6172C79.6612 21.8482 79.2249 22.0157 78.7264 22.1197C78.2279 22.2237 77.6893 22.2757 77.1115 22.2757Z" fill="#181F47"/>
<path d="M82.9357 11.6181V9.53864H85.2982V11.6181H82.9357ZM82.9357 22.0677V12.9525H85.2982V22.0677H82.9357Z" fill="#181F47"/>
<path d="M87.4673 22.0677V12.9526H89.4217L89.6089 14.2003H89.7279C89.9317 13.8999 90.1752 13.64 90.4588 13.4204C90.753 13.2009 91.0818 13.0334 91.4443 12.9179C91.8067 12.8024 92.2038 12.7446 92.634 12.7446C93.2234 12.7446 93.7389 12.8544 94.1807 13.0739C94.623 13.2933 94.9628 13.64 95.2008 14.1136C95.4503 14.5873 95.5748 15.2054 95.5748 15.9678V22.0677H93.2123V16.3491C93.2123 16.0603 93.1782 15.8177 93.1099 15.6213C93.0421 15.4133 92.9402 15.2458 92.8042 15.1187C92.6797 14.9801 92.5206 14.8819 92.3283 14.8241C92.1355 14.7664 91.9202 14.7375 91.6822 14.7375C91.3308 14.7375 91.014 14.8241 90.7304 14.9974C90.4473 15.1707 90.2264 15.4075 90.0677 15.7079C89.9091 16.0083 89.8298 16.3549 89.8298 16.7477V22.0677H87.4673Z" fill="#181F47"/>
<path d="M101.754 22.2757C100.769 22.2757 99.9413 22.1082 99.2726 21.7731C98.6044 21.4265 98.0999 20.9009 97.76 20.1962C97.4202 19.4915 97.25 18.5961 97.25 17.5101C97.25 16.4126 97.4202 15.5173 97.76 14.8241C98.0999 14.1194 98.5984 13.5995 99.2555 13.2645C99.9242 12.9179 100.74 12.7446 101.703 12.7446C102.609 12.7446 103.374 12.9121 103.998 13.2471C104.621 13.5707 105.091 14.079 105.409 14.7721C105.726 15.4537 105.885 16.3375 105.885 17.4235V18.0473H99.6466C99.6692 18.5788 99.7485 19.0294 99.8845 19.399C100.032 19.7687 100.253 20.046 100.547 20.2308C100.853 20.4041 101.256 20.4908 101.754 20.4908C102.026 20.4908 102.27 20.4561 102.485 20.3868C102.712 20.3175 102.905 20.2135 103.063 20.0749C103.221 19.9362 103.346 19.7629 103.437 19.555C103.528 19.347 103.573 19.1102 103.573 18.8445H105.885C105.885 19.4221 105.783 19.9247 105.578 20.3521C105.374 20.7796 105.091 21.1377 104.729 21.4265C104.366 21.7038 103.93 21.9176 103.42 22.0677C102.921 22.2064 102.366 22.2757 101.754 22.2757ZM99.6807 16.5224H103.454C103.454 16.1758 103.409 15.8754 103.318 15.6213C103.238 15.3671 103.126 15.1592 102.978 14.9974C102.831 14.8357 102.65 14.7201 102.434 14.6508C102.23 14.57 101.997 14.5295 101.737 14.5295C101.307 14.5295 100.944 14.6046 100.65 14.7548C100.366 14.8934 100.145 15.113 99.9864 15.4133C99.8389 15.7021 99.7369 16.0718 99.6807 16.5224Z" fill="#181F47"/>
<path d="M111.238 22.2757C110.615 22.2757 110.054 22.2064 109.556 22.0677C109.057 21.9291 108.632 21.7385 108.281 21.4959C107.929 21.2417 107.658 20.9413 107.465 20.5947C107.284 20.2482 107.193 19.8554 107.193 19.4164C107.193 19.3702 107.193 19.324 107.193 19.2777C107.193 19.2315 107.199 19.1969 107.21 19.1737H109.487C109.487 19.1969 109.487 19.2199 109.487 19.2431C109.487 19.2662 109.487 19.2893 109.487 19.3124C109.499 19.6012 109.589 19.838 109.76 20.0229C109.93 20.1962 110.151 20.3233 110.422 20.4041C110.706 20.485 111 20.5254 111.306 20.5254C111.578 20.5254 111.839 20.5023 112.088 20.4561C112.349 20.3984 112.564 20.3001 112.734 20.1615C112.915 20.0229 113.006 19.8438 113.006 19.6243C113.006 19.347 112.893 19.1333 112.666 18.9831C112.451 18.8329 112.162 18.7116 111.799 18.6192C111.448 18.5268 111.063 18.4228 110.644 18.3073C110.258 18.2149 109.873 18.1109 109.487 17.9954C109.102 17.8683 108.751 17.7065 108.434 17.5101C108.128 17.3138 107.878 17.0596 107.686 16.7477C107.493 16.4242 107.397 16.0198 107.397 15.5346C107.397 15.061 107.499 14.6508 107.703 14.3042C107.907 13.9461 108.184 13.6515 108.536 13.4204C108.898 13.1894 109.318 13.0219 109.794 12.9179C110.281 12.8024 110.802 12.7446 111.357 12.7446C111.878 12.7446 112.365 12.8024 112.819 12.9179C113.273 13.0219 113.669 13.1836 114.009 13.4031C114.349 13.6111 114.615 13.8768 114.808 14.2003C115 14.5122 115.096 14.8646 115.096 15.2573C115.096 15.3382 115.096 15.4133 115.096 15.4826C115.096 15.5519 115.091 15.5982 115.08 15.6213H112.819V15.4826C112.819 15.2747 112.757 15.1014 112.632 14.9627C112.508 14.8126 112.326 14.6971 112.088 14.6162C111.861 14.5353 111.584 14.4949 111.256 14.4949C111.029 14.4949 110.819 14.5122 110.626 14.5468C110.445 14.5815 110.287 14.6335 110.151 14.7028C110.015 14.7721 109.907 14.8588 109.827 14.9627C109.76 15.0552 109.725 15.1707 109.725 15.3093C109.725 15.5057 109.805 15.6675 109.963 15.7945C110.134 15.9101 110.354 16.0083 110.626 16.0891C110.899 16.17 111.199 16.2566 111.527 16.3491C111.935 16.4646 112.36 16.5801 112.802 16.6957C113.255 16.7996 113.674 16.9441 114.06 17.1289C114.445 17.3138 114.757 17.5795 114.994 17.926C115.232 18.2611 115.351 18.7174 115.351 19.2951C115.351 19.8496 115.244 20.3175 115.029 20.6987C114.825 21.08 114.536 21.3861 114.162 21.6172C113.788 21.8482 113.351 22.0157 112.853 22.1197C112.354 22.2237 111.816 22.2757 111.238 22.2757Z" fill="#181F47"/>
<path d="M120.683 22.2757C120.06 22.2757 119.499 22.2064 119 22.0677C118.502 21.9291 118.077 21.7385 117.725 21.4959C117.374 21.2417 117.102 20.9413 116.91 20.5947C116.728 20.2482 116.638 19.8554 116.638 19.4164C116.638 19.3702 116.638 19.324 116.638 19.2777C116.638 19.2315 116.644 19.1969 116.655 19.1737H118.932C118.932 19.1969 118.932 19.2199 118.932 19.2431C118.932 19.2662 118.932 19.2893 118.932 19.3124C118.943 19.6012 119.034 19.838 119.204 20.0229C119.375 20.1962 119.595 20.3233 119.867 20.4041C120.15 20.485 120.445 20.5254 120.751 20.5254C121.023 20.5254 121.284 20.5023 121.533 20.4561C121.794 20.3984 122.009 20.3001 122.179 20.1615C122.36 20.0229 122.451 19.8438 122.451 19.6243C122.451 19.347 122.337 19.1333 122.111 18.9831C121.896 18.8329 121.606 18.7116 121.243 18.6192C120.893 18.5268 120.507 18.4228 120.088 18.3073C119.703 18.2149 119.317 18.1109 118.932 17.9954C118.547 17.8683 118.196 17.7065 117.879 17.5101C117.573 17.3138 117.323 17.0596 117.131 16.7477C116.938 16.4242 116.842 16.0198 116.842 15.5346C116.842 15.061 116.943 14.6508 117.148 14.3042C117.351 13.9461 117.629 13.6515 117.98 13.4204C118.343 13.1894 118.763 13.0219 119.238 12.9179C119.725 12.8024 120.247 12.7446 120.802 12.7446C121.323 12.7446 121.81 12.8024 122.264 12.9179C122.717 13.0219 123.113 13.1836 123.453 13.4031C123.794 13.6111 124.06 13.8768 124.252 14.2003C124.445 14.5122 124.541 14.8646 124.541 15.2573C124.541 15.3382 124.541 15.4133 124.541 15.4826C124.541 15.5519 124.536 15.5982 124.525 15.6213H122.264V15.4826C122.264 15.2747 122.201 15.1014 122.077 14.9627C121.952 14.8126 121.771 14.6971 121.533 14.6162C121.306 14.5353 121.029 14.4949 120.7 14.4949C120.473 14.4949 120.264 14.5122 120.071 14.5468C119.89 14.5815 119.731 14.6335 119.595 14.7028C119.459 14.7721 119.351 14.8588 119.272 14.9627C119.204 15.0552 119.17 15.1707 119.17 15.3093C119.17 15.5057 119.25 15.6675 119.408 15.7945C119.578 15.9101 119.799 16.0083 120.071 16.0891C120.343 16.17 120.643 16.2566 120.972 16.3491C121.38 16.4646 121.805 16.5801 122.247 16.6957C122.7 16.7996 123.119 16.9441 123.505 17.1289C123.89 17.3138 124.201 17.5795 124.439 17.926C124.677 18.2611 124.796 18.7174 124.796 19.2951C124.796 19.8496 124.688 20.3175 124.473 20.6987C124.269 21.08 123.98 21.3861 123.606 21.6172C123.232 21.8482 122.796 22.0157 122.298 22.1197C121.799 22.2237 121.261 22.2757 120.683 22.2757Z" fill="#181F47"/>
<path d="M56.4388 41.2295C55.2264 41.2295 54.1893 41.0158 53.3283 40.5882C52.4669 40.1494 51.8098 39.4735 51.3564 38.5608C50.9147 37.648 50.6938 36.4869 50.6938 35.0776C50.6938 32.9981 51.1923 31.4558 52.1893 30.4506C53.1978 29.4339 54.6145 28.9257 56.4388 28.9257C57.4358 28.9257 58.3308 29.099 59.124 29.4456C59.9172 29.7922 60.5407 30.312 60.994 31.0052C61.4583 31.6984 61.6908 32.5705 61.6908 33.6219H59.1411C59.1411 33.0674 59.0276 32.5995 58.8012 32.2183C58.5859 31.837 58.2741 31.5481 57.8665 31.3518C57.4699 31.1439 57.005 31.0399 56.4724 31.0399C55.7475 31.0399 55.1466 31.1842 54.6707 31.4731C54.2063 31.762 53.8605 32.1893 53.634 32.7555C53.4187 33.31 53.3113 33.9915 53.3113 34.8003V35.3375C53.3113 36.1693 53.4247 36.8681 53.6511 37.4344C53.8775 37.9889 54.2174 38.4105 54.6707 38.6994C55.1356 38.9767 55.7304 39.1153 56.4558 39.1153C57.0221 39.1153 57.5151 39.017 57.9342 38.8207C58.3539 38.6244 58.6767 38.3354 58.9031 37.9542C59.1295 37.573 59.243 37.1051 59.243 36.5506H61.6908C61.6908 37.602 61.4644 38.4741 61.0106 39.1673C60.5688 39.8605 59.9513 40.3803 59.1581 40.7269C58.365 41.0619 57.4583 41.2295 56.4388 41.2295Z" fill="#181F47"/>
<path d="M67.5447 41.2295C66.5587 41.2295 65.7314 41.0619 65.0628 40.727C64.3941 40.3803 63.8901 39.8548 63.5502 39.15C63.2103 38.4452 63.0402 37.55 63.0402 36.464C63.0402 35.3665 63.2103 34.4711 63.5502 33.7779C63.8901 33.0731 64.3886 32.5533 65.0462 32.2183C65.7144 31.8717 66.5301 31.6984 67.4935 31.6984C68.4001 31.6984 69.1647 31.866 69.7882 32.2009C70.4111 32.5246 70.8815 33.0327 71.1988 33.726C71.5161 34.4074 71.6747 35.2913 71.6747 36.3773V37.0011H65.4368C65.4593 37.5327 65.5387 37.9833 65.6747 38.3529C65.8218 38.7225 66.0432 38.9997 66.3379 39.1847C66.6436 39.358 67.0457 39.4446 67.5447 39.4446C67.8163 39.4446 68.0602 39.4099 68.2756 39.3406C68.502 39.2713 68.6943 39.1673 68.8534 39.0287C69.0121 38.8901 69.1365 38.7168 69.2274 38.5088C69.3178 38.3009 69.3635 38.0639 69.3635 37.7983H71.6747C71.6747 38.3758 71.5728 38.8784 71.369 39.306C71.1647 39.7335 70.8815 40.0915 70.5191 40.3803C70.1561 40.6576 69.7204 40.8712 69.2103 41.0216C68.7113 41.1602 68.1566 41.2295 67.5447 41.2295ZM65.4709 35.4762H69.2445C69.2445 35.1296 69.1988 34.8293 69.1084 34.5751C69.0286 34.3208 68.9157 34.1128 68.7681 33.9512C68.621 33.7895 68.4398 33.674 68.2244 33.6046C68.0206 33.5237 67.7882 33.4833 67.5276 33.4833C67.0969 33.4833 66.7344 33.5583 66.4398 33.7086C66.1561 33.8473 65.9352 34.0669 65.7766 34.3671C65.6295 34.656 65.5276 35.0256 65.4709 35.4762Z" fill="#181F47"/>
<path d="M73.4081 41.0216V31.9064H75.363L75.5497 33.1541H75.6687C75.8725 32.8538 76.1165 32.5939 76.3996 32.3743C76.6943 32.1546 77.0226 31.9873 77.3855 31.8717C77.748 31.7561 78.1446 31.6984 78.5753 31.6984C79.1642 31.6984 79.6802 31.8081 80.122 32.0277C80.5638 32.2472 80.9041 32.5939 81.1421 33.0674C81.3911 33.541 81.5156 34.1591 81.5156 34.9217V41.0216H79.1531V35.3029C79.1531 35.014 79.1195 34.7714 79.0512 34.5751C78.9834 34.3671 78.881 34.1995 78.7455 34.0725C78.6205 33.9339 78.4619 33.8356 78.2696 33.7779C78.0768 33.7203 77.861 33.6913 77.6235 33.6913C77.2721 33.6913 76.9548 33.7779 76.6717 33.9512C76.3881 34.1245 76.1672 34.3614 76.0085 34.6617C75.8499 34.962 75.7706 35.3086 75.7706 35.7015V41.0216H73.4081Z" fill="#181F47"/>
<path d="M86.3017 41.2295C85.7349 41.2295 85.2761 41.1255 84.9247 40.9176C84.5733 40.7096 84.3183 40.4323 84.1601 40.0857C84.001 39.7275 83.9222 39.3349 83.9222 38.9074V33.7606H82.8173V31.9064H84.007L84.4488 29.307H86.2846V31.9064H87.9162V33.7606H86.2846V38.5088C86.2846 38.7861 86.3469 38.9997 86.4714 39.15C86.5959 39.2886 86.8002 39.3579 87.0833 39.3579H87.9162V40.9522C87.7801 40.9985 87.6215 41.0389 87.4403 41.0735C87.259 41.1198 87.0663 41.1545 86.8624 41.1775C86.6586 41.2121 86.4714 41.2295 86.3017 41.2295Z" fill="#181F47"/>
<path d="M93.5045 41.2295C92.5186 41.2295 91.6917 41.0619 91.0231 40.727C90.3544 40.3803 89.8504 39.8548 89.5105 39.15C89.1707 38.4452 89.0005 37.55 89.0005 36.464C89.0005 35.3665 89.1707 34.4711 89.5105 33.7779C89.8504 33.0731 90.3489 32.5533 91.006 32.2183C91.6747 31.8717 92.4904 31.6984 93.4538 31.6984C94.3604 31.6984 95.125 31.866 95.7485 32.2009C96.3715 32.5246 96.8419 33.0327 97.1591 33.726C97.4764 34.4074 97.635 35.2913 97.635 36.3773V37.0011H91.3971C91.4197 37.5327 91.499 37.9833 91.635 38.3529C91.7821 38.7225 92.003 38.9997 92.2982 39.1847C92.6039 39.358 93.006 39.4446 93.5045 39.4446C93.7766 39.4446 94.0201 39.4099 94.2354 39.3406C94.4623 39.2713 94.6546 39.1673 94.8137 39.0287C94.9719 38.8901 95.0969 38.7168 95.1872 38.5088C95.2781 38.3009 95.3233 38.0639 95.3233 37.7983H97.635C97.635 38.3758 97.5331 38.8784 97.3293 39.306C97.125 39.7335 96.8419 40.0915 96.4794 40.3803C96.1164 40.6576 95.6802 40.8712 95.1707 41.0216C94.6717 41.1602 94.1165 41.2295 93.5045 41.2295ZM91.4307 35.4762H95.2043C95.2043 35.1296 95.1591 34.8293 95.0683 34.5751C94.9889 34.3208 94.8755 34.1128 94.7284 33.9512C94.5813 33.7895 94.3996 33.674 94.1847 33.6046C93.9809 33.5237 93.7485 33.4833 93.4879 33.4833C93.0572 33.4833 92.6943 33.5583 92.4001 33.7086C92.1165 33.8473 91.8956 34.0669 91.7369 34.3671C91.5898 34.656 91.4879 35.0256 91.4307 35.4762Z" fill="#181F47"/>
<path d="M99.3685 41.0215V31.9063H101.323L101.51 33.3273H101.629C101.742 33.0271 101.89 32.7555 102.071 32.5129C102.252 32.2586 102.479 32.0566 102.751 31.9063C103.023 31.7561 103.34 31.6811 103.703 31.6811C103.895 31.6811 104.071 31.7041 104.229 31.7504C104.388 31.785 104.507 31.8197 104.587 31.8543V34.0378H103.856C103.505 34.0378 103.193 34.0899 102.921 34.1938C102.66 34.2861 102.439 34.4364 102.258 34.6444C102.077 34.8523 101.941 35.1066 101.85 35.4068C101.771 35.7072 101.731 36.0597 101.731 36.464V41.0215H99.3685Z" fill="#181F47"/>
<mask id="mask0_28_58" style="mask-type:alpha" maskUnits="userSpaceOnUse" x="12" y="7" width="27" height="37">
<path d="M17.1298 7.71991C14.2615 7.6116 13.0133 10.4727 12.7477 11.9168C12.792 20.1753 12.8805 37.1796 12.8805 39.1292C12.8805 41.0787 15.2265 42.1977 16.2003 42.5138H28.948C30.1431 42.243 35.5875 40.6184 37.4465 34.3907C38.9338 29.4085 34.9679 25.6358 32.7989 24.3722C35.6672 21.9895 36.5613 18.7763 36.6498 17.4676C37.2872 10.211 31.1611 7.94559 28.0185 7.71991C25.584 7.76503 19.998 7.82822 17.1298 7.71991Z" fill="black" stroke="black"/>
</mask>
<g mask="url(#mask0_28_58)">
<path d="M35.3219 7.71692H10.092V10.9661H35.3219V7.71692Z" fill="#181F47"/>
<path d="M37.7121 12.8615H20.7151V16.1108H37.7121V12.8615Z" fill="#181F47"/>
<path d="M37.7121 18.0061H25.4955V21.2553H37.7121V18.0061Z" fill="#181F47"/>
<path d="M36.9154 23.0154H3.45251V26.2646H36.9154V23.0154Z" fill="#181F47"/>
<path d="M39.5711 28.5662H21.5118V31.8154H39.5711V28.5662Z" fill="#181F47"/>
<path d="M39.04 33.7107H24.1676V36.96H39.04V33.7107Z" fill="#181F47"/>
<path d="M36.9154 39.3969H10.8887V42.6461H36.9154V39.3969Z" fill="#181F47"/>
</g>
<path d="M44.2188 6.76923V44" stroke="#181F47" stroke-width="3"/>
<path d="M0 23.0154H16.2003V26.2646H1.59721L0 23.0154Z" fill="#181F47"/>
<path d="M3.59739 31.68L2.3902 28.7015H9.02967L7.73624 31.68H3.59739Z" fill="#181F47"/>
<path d="M5.1095 42.5108L4.13379 33.8461H7.4362L6.68565 42.5108H5.1095Z" fill="#181F47"/>
<path d="M1.16182 15.1385C0.0413587 17.4948 1.95551 19.6221 3.05265 20.3912C1.91486 18.1066 2.96405 15.9593 3.11238 15.6765C3.11238 15.6765 4.77245 13.3495 5.56855 11.2677C6.39019 9.11887 5.81569 6.65338 5.46187 5.70288C5.18873 7.36823 4.41475 10.9682 3.50408 12.0455C2.59339 13.1229 1.56312 14.5564 1.16182 15.1385Z" fill="#181F47"/>
<path d="M6.4295 13.5498C7.57669 12.1218 7.3541 9.2385 7.09943 7.97534C7.4162 8.50626 8.0432 10.1107 8.0171 12.2813C7.98437 14.9946 7.00982 16.0153 6.21424 17.2529C5.57774 18.243 5.5927 20.3167 5.67975 21.2298C5.33472 21.0317 4.53979 20.244 4.12001 18.6779C3.59528 16.7203 4.99546 15.3348 6.4295 13.5498Z" fill="#181F47"/>
<path d="M8.22008 16.8697C7.136 18.3027 6.94011 20.4246 6.97465 21.0857C9.73745 19.9207 10.1413 18.6486 10.5488 16.1695C10.8749 14.1863 10.1664 12.1454 9.77149 11.3729C10.249 12.7228 9.24252 15.5182 8.22008 16.8697Z" fill="#181F47"/>
<path d="M51.4077 0.147644H51.9689V3.27688C51.9689 3.59996 51.8941 3.88841 51.745 4.14226C51.5969 4.39456 51.3881 4.5938 51.1175 4.73996C50.8474 4.88457 50.5306 4.95687 50.1672 4.95687C49.8034 4.95687 49.4866 4.88457 49.2164 4.73996C48.9464 4.5938 48.7366 4.39456 48.5873 4.14226C48.4394 3.88841 48.3655 3.59996 48.3655 3.27688V0.147644H48.9267V3.23072C48.9267 3.46149 48.9766 3.66687 49.0762 3.84688C49.1758 4.02534 49.3176 4.16612 49.5017 4.26917C49.6873 4.37071 49.9091 4.42148 50.1672 4.42148C50.4252 4.42148 50.6471 4.37071 50.8324 4.26917C51.0181 4.16612 51.1602 4.02534 51.2581 3.84688C51.358 3.66687 51.4077 3.46149 51.4077 3.23072V0.147644Z" fill="#181F47"/>
<path d="M53.5517 2.74154V4.87385H53.0176V1.32923H53.5336V1.88308H53.5788C53.6601 1.70308 53.7836 1.55846 53.9498 1.44923C54.116 1.33846 54.3303 1.28308 54.5929 1.28308C54.8283 1.28308 55.0341 1.33231 55.2109 1.43077C55.3871 1.5277 55.5246 1.67539 55.6225 1.87385C55.7209 2.07077 55.7701 2.32 55.7701 2.62154V4.87385H55.2354V2.65846C55.2354 2.38 55.1647 2.16308 55.0226 2.00769C54.881 1.85077 54.6863 1.77231 54.4388 1.77231C54.2681 1.77231 54.116 1.81001 53.9819 1.88539C53.8489 1.96077 53.744 2.07077 53.6672 2.21539C53.5899 2.36001 53.5517 2.53539 53.5517 2.74154Z" fill="#181F47"/>
<path d="M56.746 4.87384V1.32923H57.2801V4.87384H56.746ZM57.0175 0.738458C56.9136 0.738458 56.8238 0.702307 56.748 0.629998C56.6742 0.557695 56.637 0.47077 56.637 0.369232C56.637 0.267692 56.6742 0.180769 56.748 0.108462C56.8238 0.0361539 56.9136 0 57.0175 0C57.1215 0 57.2108 0.0361539 57.2846 0.108462C57.3599 0.180769 57.3976 0.267692 57.3976 0.369232C57.3976 0.47077 57.3599 0.557695 57.2846 0.629998C57.2108 0.702307 57.1215 0.738458 57.0175 0.738458Z" fill="#181F47"/>
<path d="M61.1014 1.32922L59.8158 4.87384H59.2726L57.9869 1.32922H58.5663L59.5261 4.15384H59.5622L60.5216 1.32922H61.1014Z" fill="#181F47"/>
<path d="M63.1396 4.94769C62.8047 4.94769 62.5156 4.87231 62.2726 4.72154C62.0312 4.56924 61.8449 4.35693 61.7134 4.08461C61.5839 3.81078 61.5191 3.49231 61.5191 3.12923C61.5191 2.76616 61.5839 2.44616 61.7134 2.16924C61.8449 1.89077 62.0276 1.67385 62.2616 1.51847C62.4965 1.36154 62.7711 1.28308 63.0854 1.28308C63.2666 1.28308 63.4453 1.31385 63.6215 1.37539C63.7982 1.43693 63.9589 1.53693 64.1039 1.67539C64.2485 1.81231 64.364 1.99385 64.4498 2.22C64.5362 2.44616 64.5793 2.72462 64.5793 3.05539V3.28617H61.8991V2.81538H64.0362C64.0362 2.61539 63.9965 2.43693 63.9182 2.28C63.8414 2.12308 63.731 1.99923 63.5879 1.90847C63.4458 1.8177 63.2781 1.77231 63.0854 1.77231C62.8725 1.77231 62.6883 1.82616 62.5332 1.93385C62.379 2.04 62.2606 2.17847 62.1772 2.34924C62.0944 2.52 62.0532 2.70308 62.0532 2.89845V3.2123C62.0532 3.48001 62.0984 3.70692 62.1888 3.89307C62.2812 4.07771 62.4087 4.21845 62.5713 4.31539C62.7345 4.41078 62.9237 4.45846 63.1396 4.45846C63.2802 4.45846 63.4067 4.43845 63.5196 4.39846C63.6346 4.35693 63.7335 4.29538 63.8163 4.21385C63.8991 4.13078 63.9634 4.0277 64.0086 3.90463L64.5251 4.05231C64.4704 4.23077 64.379 4.38769 64.251 4.52307C64.1225 4.65694 63.9644 4.76154 63.7756 4.83692C63.5869 4.91078 63.375 4.94769 63.1396 4.94769Z" fill="#181F47"/>
<path d="M65.3916 4.87386V1.32925H65.9077V1.86463H65.9438C66.0076 1.68925 66.122 1.54694 66.2882 1.43771C66.4544 1.32848 66.6411 1.27386 66.8494 1.27386C66.8886 1.27386 66.9378 1.27464 66.9965 1.27617C67.0553 1.27771 67.0999 1.28002 67.1301 1.28309V1.83694C67.112 1.83233 67.0703 1.8254 67.0056 1.81617C66.9423 1.8054 66.875 1.80002 66.8043 1.80002C66.6351 1.80002 66.484 1.83617 66.3514 1.90848C66.2199 1.97925 66.116 2.07771 66.0392 2.20386C65.9634 2.32848 65.9257 2.47079 65.9257 2.63079V4.87386H65.3916Z" fill="#181F47"/>
<path d="M70.2259 2.12308L69.746 2.26154C69.7159 2.18001 69.6712 2.10077 69.6125 2.02385C69.5552 1.94539 69.4764 1.88078 69.377 1.83001C69.2776 1.77923 69.1501 1.75385 68.9945 1.75385C68.7816 1.75385 68.6044 1.80385 68.4629 1.90385C68.3223 2.00231 68.252 2.1277 68.252 2.28C68.252 2.41539 68.3002 2.52231 68.3971 2.60077C68.4935 2.67924 68.6446 2.74463 68.8494 2.79692L69.366 2.92615C69.6767 3.00308 69.9081 3.12078 70.0607 3.27924C70.2129 3.43615 70.2892 3.63847 70.2892 3.88617C70.2892 4.08924 70.2319 4.27077 70.117 4.43076C70.004 4.59076 69.8454 4.71694 69.6416 4.80925C69.4383 4.90155 69.2013 4.94769 68.9312 4.94769C68.5768 4.94769 68.2831 4.86924 68.0507 4.71231C67.8183 4.5554 67.6712 4.32617 67.6094 4.02461L68.1165 3.8954C68.1647 4.08616 68.256 4.22923 68.3901 4.32462C68.5261 4.42001 68.7033 4.4677 68.9222 4.4677C69.1712 4.4677 69.369 4.41384 69.5151 4.30616C69.6632 4.19692 69.7369 4.06615 69.7369 3.91384C69.7369 3.79077 69.6948 3.68769 69.6104 3.60462C69.5256 3.52001 69.3961 3.45692 69.2209 3.41538L68.6416 3.27694C68.3228 3.20001 68.0894 3.08076 67.9398 2.91922C67.7917 2.75617 67.7179 2.55231 67.7179 2.3077C67.7179 2.1077 67.7731 1.93077 67.883 1.77693C67.995 1.62308 68.1466 1.50231 68.3379 1.41462C68.5311 1.32693 68.75 1.28308 68.9945 1.28308C69.3384 1.28308 69.6084 1.36 69.8047 1.51385C70.0025 1.6677 70.1431 1.87077 70.2259 2.12308Z" fill="#181F47"/>
<path d="M71.0934 4.87384V1.32923H71.6275V4.87384H71.0934ZM71.365 0.738458C71.2605 0.738458 71.1712 0.702307 71.0954 0.629998C71.0216 0.557695 70.9844 0.47077 70.9844 0.369232C70.9844 0.267692 71.0216 0.180769 71.0954 0.108462C71.1712 0.0361539 71.2605 0 71.365 0C71.4689 0 71.5577 0.0361539 71.632 0.108462C71.7073 0.180769 71.745 0.267692 71.745 0.369232C71.745 0.47077 71.7073 0.557695 71.632 0.629998C71.5577 0.702307 71.4689 0.738458 71.365 0.738458Z" fill="#181F47"/>
<path d="M73.9187 4.94764C73.629 4.94764 73.373 4.87304 73.1516 4.72379C72.9297 4.57303 72.756 4.36072 72.631 4.08689C72.5055 3.81149 72.4427 3.48611 72.4427 3.11071C72.4427 2.7384 72.5055 2.41533 72.631 2.14149C72.756 1.86764 72.9302 1.6561 73.1536 1.50687C73.377 1.35764 73.635 1.28303 73.9277 1.28303C74.1541 1.28303 74.3328 1.32149 74.4643 1.39841C74.5969 1.4738 74.6983 1.55995 74.7675 1.65688C74.8383 1.75226 74.8936 1.83072 74.9327 1.89226H74.9779V0.147644H75.512V4.8738H74.996V4.32917H74.9327C74.8936 4.39381 74.8373 4.47533 74.765 4.57379C74.6928 4.67072 74.5893 4.75764 74.4553 4.83456C74.3208 4.90995 74.142 4.94764 73.9187 4.94764ZM73.9909 4.45841C74.2053 4.45841 74.3865 4.40149 74.5341 4.28764C74.6822 4.17226 74.7947 4.01302 74.8715 3.80995C74.9488 3.60533 74.9869 3.36919 74.9869 3.10148C74.9869 2.83688 74.9493 2.60534 74.874 2.40687C74.7982 2.20688 74.6867 2.05149 74.5386 1.94072C74.391 1.82841 74.2083 1.77226 73.9909 1.77226C73.7645 1.77226 73.5763 1.83149 73.4252 1.94995C73.2761 2.06688 73.1631 2.2261 73.0878 2.42764C73.014 2.62765 72.9774 2.85226 72.9774 3.10148C72.9774 3.35381 73.015 3.58304 73.0903 3.78918C73.1671 3.9938 73.2806 4.15688 73.4297 4.2784C73.5808 4.39841 73.7681 4.45841 73.9909 4.45841Z" fill="#181F47"/>
<path d="M77.5879 4.95692C77.3675 4.95692 77.1677 4.91463 76.988 4.83001C76.8082 4.74385 76.6657 4.62001 76.5602 4.45846C76.4543 4.29538 76.4016 4.09848 76.4016 3.8677C76.4016 3.66462 76.4408 3.5 76.5196 3.37384C76.5979 3.24615 76.7028 3.14615 76.8338 3.07386C76.9654 3.00154 77.1099 2.94771 77.2686 2.91232C77.4287 2.87538 77.5894 2.84617 77.7505 2.82462C77.9619 2.79692 78.133 2.77615 78.2646 2.76231C78.3976 2.74693 78.494 2.72153 78.5542 2.68616C78.616 2.65077 78.6471 2.58924 78.6471 2.50154V2.48308C78.6471 2.25539 78.5858 2.07847 78.4639 1.95231C78.3429 1.82616 78.1596 1.76308 77.9137 1.76308C77.6586 1.76308 77.4588 1.82 77.3138 1.93385C77.1692 2.0477 77.0673 2.16924 77.0085 2.29847L76.501 2.11385C76.5919 1.89847 76.7124 1.73078 76.8635 1.61077C77.0161 1.48924 77.1817 1.40462 77.3615 1.35692C77.5427 1.3077 77.7204 1.28308 77.8956 1.28308C78.007 1.28308 78.1355 1.29693 78.2801 1.32462C78.4267 1.35077 78.5678 1.40539 78.7038 1.48846C78.8409 1.57154 78.9548 1.69693 79.0452 1.86462C79.136 2.03231 79.1812 2.25693 79.1812 2.53847V4.87385H78.6471V4.39386H78.62C78.5833 4.47078 78.5231 4.55307 78.4388 4.64077C78.3544 4.72848 78.242 4.80307 78.1014 4.86462C77.9614 4.92616 77.7902 4.95692 77.5879 4.95692ZM77.6692 4.4677C77.8805 4.4677 78.0587 4.4254 78.2033 4.34076C78.3499 4.25617 78.4598 4.14692 78.5341 4.01308C78.6094 3.87923 78.6471 3.73846 78.6471 3.59078V3.09233C78.6245 3.12 78.5743 3.1454 78.4975 3.16847C78.4222 3.18999 78.3348 3.20924 78.2349 3.22617C78.137 3.24155 78.0412 3.25538 77.9473 3.2677C77.8554 3.27848 77.7811 3.28769 77.7234 3.2954C77.5848 3.31384 77.4548 3.34384 77.3343 3.38538C77.2149 3.4254 77.1185 3.48616 77.0447 3.56769C76.9719 3.6477 76.9357 3.75693 76.9357 3.8954C76.9357 4.08461 77.0045 4.22769 77.1416 4.32462C77.2806 4.42001 77.4563 4.4677 77.6692 4.4677Z" fill="#181F47"/>
<path d="M81.4689 4.94764C81.1792 4.94764 80.9237 4.87304 80.7013 4.72379C80.4799 4.57303 80.3062 4.36072 80.1812 4.08689C80.0557 3.81149 79.9935 3.48611 79.9935 3.11071C79.9935 2.7384 80.0557 2.41533 80.1812 2.14149C80.3062 1.86764 80.4804 1.6561 80.7038 1.50687C80.9272 1.35764 81.1852 1.28303 81.4779 1.28303C81.7043 1.28303 81.883 1.32149 82.0146 1.39841C82.1476 1.4738 82.2485 1.55995 82.3178 1.65688C82.3886 1.75226 82.4438 1.83072 82.4829 1.89226H82.5281V0.147644H83.0627V4.8738H82.5462V4.32917H82.4829C82.4438 4.39381 82.388 4.47533 82.3153 4.57379C82.243 4.67072 82.1396 4.75764 82.0055 4.83456C81.871 4.90995 81.6923 4.94764 81.4689 4.94764ZM81.5412 4.45841C81.7555 4.45841 81.9367 4.40149 82.0848 4.28764C82.2324 4.17226 82.3449 4.01302 82.4222 3.80995C82.499 3.60533 82.5371 3.36919 82.5371 3.10148C82.5371 2.83688 82.4995 2.60534 82.4242 2.40687C82.3489 2.20688 82.2369 2.05149 82.0894 1.94072C81.9413 1.82841 81.759 1.77226 81.5412 1.77226C81.3153 1.77226 81.1265 1.83149 80.9754 1.94995C80.8263 2.06688 80.7139 2.2261 80.6386 2.42764C80.5643 2.62765 80.5271 2.85226 80.5271 3.10148C80.5271 3.35381 80.5653 3.58304 80.6406 3.78918C80.7174 3.9938 80.8308 4.15688 80.9799 4.2784C81.131 4.39841 81.3178 4.45841 81.5412 4.45841Z" fill="#181F47"/>
<path d="M85.7264 0.655335V0.147644H89.2033V0.655335H87.7455V4.8738H87.1842V0.655335H85.7264Z" fill="#181F47"/>
<path d="M90.5472 4.95692C90.3268 4.95692 90.127 4.91463 89.9473 4.83001C89.7681 4.74385 89.625 4.62001 89.5196 4.45846C89.4137 4.29538 89.361 4.09848 89.361 3.8677C89.361 3.66462 89.4001 3.5 89.4784 3.37384C89.5572 3.24615 89.6622 3.14615 89.7932 3.07386C89.9247 3.00154 90.0698 2.94771 90.2279 2.91232C90.3881 2.87538 90.5487 2.84617 90.7104 2.82462C90.9212 2.79692 91.0924 2.77615 91.2239 2.76231C91.3564 2.74693 91.4533 2.72153 91.5136 2.68616C91.5753 2.65077 91.6064 2.58924 91.6064 2.50154V2.48308C91.6064 2.25539 91.5452 2.07847 91.4227 1.95231C91.3022 1.82616 91.119 1.76308 90.873 1.76308C90.618 1.76308 90.4182 1.82 90.2731 1.93385C90.128 2.0477 90.0266 2.16924 89.9674 2.29847L89.4604 2.11385C89.5512 1.89847 89.6722 1.73078 89.8228 1.61077C89.9754 1.48924 90.1411 1.40462 90.3208 1.35692C90.502 1.3077 90.6797 1.28308 90.8549 1.28308C90.9669 1.28308 91.0949 1.29693 91.2395 1.32462C91.3861 1.35077 91.5271 1.40539 91.6632 1.48846C91.8002 1.57154 91.9142 1.69693 92.005 1.86462C92.0954 2.03231 92.1406 2.25693 92.1406 2.53847V4.87385H91.6064V4.39386H91.5793C91.5432 4.47078 91.4829 4.55307 91.3981 4.64077C91.3138 4.72848 91.2013 4.80307 91.0608 4.86462C90.9207 4.92616 90.7495 4.95692 90.5472 4.95692ZM90.6285 4.4677C90.8399 4.4677 91.0181 4.4254 91.1627 4.34076C91.3092 4.25617 91.4192 4.14692 91.4935 4.01308C91.5688 3.87923 91.6064 3.73846 91.6064 3.59078V3.09233C91.5838 3.12 91.5342 3.1454 91.4568 3.16847C91.3815 3.18999 91.2942 3.20924 91.1948 3.22617C91.0964 3.24155 91.0005 3.25538 90.9071 3.2677C90.8153 3.27848 90.74 3.28769 90.6833 3.2954C90.5442 3.31384 90.4142 3.34384 90.2937 3.38538C90.1747 3.4254 90.0778 3.48616 90.004 3.56769C89.9312 3.6477 89.8956 3.75693 89.8956 3.8954C89.8956 4.08461 89.9639 4.22769 90.1014 4.32462C90.24 4.42001 90.4157 4.4677 90.6285 4.4677Z" fill="#181F47"/>
<path d="M93.1155 4.87385V1.32923H93.6316V1.88308H93.6767C93.7495 1.69385 93.8665 1.54693 94.0276 1.44231C94.1893 1.33616 94.3831 1.28308 94.6095 1.28308C94.8389 1.28308 95.0296 1.33616 95.1822 1.44231C95.3359 1.54693 95.4558 1.69385 95.5422 1.88308H95.5783C95.6672 1.70001 95.8007 1.55462 95.9789 1.44693C96.1572 1.3377 96.3705 1.28308 96.6195 1.28308C96.9302 1.28308 97.1843 1.38231 97.382 1.58077C97.5798 1.7777 97.6787 2.08462 97.6787 2.50154V4.87385H97.1446V2.50154C97.1446 2.24 97.0743 2.05308 96.9338 1.94077C96.7937 1.82847 96.6285 1.77231 96.4383 1.77231C96.1938 1.77231 96.0045 1.84769 95.8705 1.99846C95.736 2.1477 95.6687 2.33693 95.6687 2.56616V4.87385H95.1255V2.44616C95.1255 2.24462 95.0613 2.08231 94.9333 1.95924C94.8047 1.83462 94.6396 1.77231 94.4378 1.77231C94.2987 1.77231 94.1687 1.81001 94.0482 1.88539C93.9287 1.96077 93.8323 2.06539 93.7586 2.19924C93.6858 2.33154 93.6496 2.48462 93.6496 2.65846V4.87385H93.1155Z" fill="#181F47"/>
<path d="M99.6782 4.95692C99.4579 4.95692 99.2586 4.91463 99.0783 4.83001C98.8991 4.74385 98.7565 4.62001 98.6511 4.45846C98.5452 4.29538 98.4925 4.09848 98.4925 3.8677C98.4925 3.66462 98.5316 3.5 98.61 3.37384C98.6888 3.24615 98.7937 3.14615 98.9247 3.07386C99.0557 3.00154 99.2008 2.94771 99.3595 2.91232C99.5196 2.87538 99.6802 2.84617 99.8414 2.82462C100.053 2.79692 100.224 2.77615 100.355 2.76231C100.488 2.74693 100.585 2.72153 100.645 2.68616C100.707 2.65077 100.738 2.58924 100.738 2.50154V2.48308C100.738 2.25539 100.677 2.07847 100.554 1.95231C100.434 1.82616 100.25 1.76308 100.005 1.76308C99.7495 1.76308 99.5492 1.82 99.4046 1.93385C99.2596 2.0477 99.1582 2.16924 99.0989 2.29847L98.5919 2.11385C98.6828 1.89847 98.8032 1.73078 98.9543 1.61077C99.1064 1.48924 99.2726 1.40462 99.4523 1.35692C99.6336 1.3077 99.8113 1.28308 99.9865 1.28308C100.098 1.28308 100.226 1.29693 100.371 1.32462C100.518 1.35077 100.659 1.40539 100.794 1.48846C100.932 1.57154 101.046 1.69693 101.136 1.86462C101.227 2.03231 101.272 2.25693 101.272 2.53847V4.87385H100.738V4.39386H100.71C100.674 4.47078 100.614 4.55307 100.53 4.64077C100.445 4.72848 100.332 4.80307 100.192 4.86462C100.052 4.92616 99.8805 4.95692 99.6782 4.95692ZM99.7601 4.4677C99.9709 4.4677 100.149 4.4254 100.294 4.34076C100.44 4.25617 100.551 4.14692 100.625 4.01308C100.7 3.87923 100.738 3.73846 100.738 3.59078V3.09233C100.715 3.12 100.665 3.1454 100.588 3.16847C100.513 3.18999 100.426 3.20924 100.326 3.22617C100.227 3.24155 100.132 3.25538 100.038 3.2677C99.9463 3.27848 99.8715 3.28769 99.8143 3.2954C99.6757 3.31384 99.5457 3.34384 99.4247 3.38538C99.3057 3.4254 99.2094 3.48616 99.1356 3.56769C99.0628 3.6477 99.0266 3.75693 99.0266 3.8954C99.0266 4.08461 99.0954 4.22769 99.2325 4.32462C99.3715 4.42001 99.5472 4.4677 99.7601 4.4677Z" fill="#181F47"/>
<path d="M104.438 3.4246V1.32922H104.972V4.87384H104.438V4.27384H104.402C104.32 4.45385 104.194 4.60692 104.022 4.73307C103.849 4.85768 103.632 4.92001 103.37 4.92001C103.152 4.92001 102.959 4.87154 102.79 4.7746C102.621 4.67615 102.488 4.52845 102.392 4.33154C102.295 4.13307 102.247 3.88307 102.247 3.58154V1.32922H102.781V3.54461C102.781 3.80308 102.852 4.00922 102.994 4.16307C103.137 4.31692 103.32 4.39385 103.542 4.39385C103.674 4.39385 103.81 4.35922 103.947 4.29001C104.085 4.22077 104.202 4.1146 104.295 3.97153C104.391 3.82845 104.438 3.64615 104.438 3.4246Z" fill="#181F47"/>
<path d="M106.485 0.147644V4.8738H105.95V0.147644H106.485Z" fill="#181F47"/>
<path d="M107.463 4.87384V1.32923H107.997V4.87384H107.463ZM107.735 0.738458C107.631 0.738458 107.541 0.702307 107.465 0.629998C107.392 0.557695 107.354 0.47077 107.354 0.369232C107.354 0.267692 107.392 0.180769 107.465 0.108462C107.541 0.0361539 107.631 0 107.735 0C107.839 0 107.928 0.0361539 108.002 0.108462C108.077 0.180769 108.115 0.267692 108.115 0.369232C108.115 0.47077 108.077 0.557695 108.002 0.629998C107.928 0.702307 107.839 0.738458 107.735 0.738458Z" fill="#181F47"/>
<path d="M108.975 6.20309V1.32923H109.491V1.89231H109.555C109.594 1.83077 109.649 1.75231 109.718 1.65693C109.789 1.56 109.89 1.47385 110.022 1.39846C110.154 1.32154 110.334 1.28308 110.56 1.28308C110.852 1.28308 111.111 1.3577 111.334 1.50693C111.557 1.65616 111.732 1.8677 111.857 2.14154C111.982 2.41539 112.045 2.73846 112.045 3.11076C112.045 3.48616 111.982 3.81154 111.857 4.08694C111.732 4.36077 111.558 4.57308 111.336 4.72385C111.114 4.87309 110.859 4.94769 110.569 4.94769C110.346 4.94769 110.167 4.91 110.033 4.83462C109.899 4.75769 109.795 4.67077 109.722 4.57384C109.65 4.47539 109.594 4.39386 109.555 4.32923H109.51V6.20309H108.975ZM109.501 3.10153C109.501 3.36924 109.539 3.60538 109.616 3.81C109.693 4.01308 109.805 4.17232 109.953 4.28769C110.101 4.40155 110.283 4.45846 110.496 4.45846C110.72 4.45846 110.906 4.39846 111.056 4.27846C111.207 4.15694 111.32 3.99385 111.395 3.78923C111.472 3.58309 111.511 3.35386 111.511 3.10153C111.511 2.85232 111.473 2.6277 111.397 2.42769C111.323 2.22616 111.211 2.06693 111.06 1.95C110.911 1.83154 110.723 1.77231 110.496 1.77231C110.279 1.77231 110.097 1.82847 109.949 1.94077C109.801 2.05154 109.689 2.20693 109.614 2.40693C109.538 2.60539 109.501 2.83694 109.501 3.10153Z" fill="#181F47"/>
<path d="M114.317 4.94769C113.982 4.94769 113.693 4.87231 113.45 4.72154C113.209 4.56924 113.023 4.35693 112.891 4.08461C112.762 3.81078 112.697 3.49231 112.697 3.12923C112.697 2.76616 112.762 2.44616 112.891 2.16924C113.023 1.89077 113.205 1.67385 113.439 1.51847C113.674 1.36154 113.949 1.28308 114.263 1.28308C114.444 1.28308 114.623 1.31385 114.799 1.37539C114.976 1.43693 115.137 1.53693 115.282 1.67539C115.426 1.81231 115.542 1.99385 115.627 2.22C115.714 2.44616 115.757 2.72462 115.757 3.05539V3.28617H113.077V2.81538H115.214C115.214 2.61539 115.174 2.43693 115.096 2.28C115.019 2.12308 114.909 1.99923 114.766 1.90847C114.623 1.8177 114.456 1.77231 114.263 1.77231C114.05 1.77231 113.866 1.82616 113.711 1.93385C113.557 2.04 113.438 2.17847 113.355 2.34924C113.272 2.52 113.231 2.70308 113.231 2.89845V3.2123C113.231 3.48001 113.276 3.70692 113.366 3.89307C113.459 4.07771 113.586 4.21845 113.749 4.31539C113.912 4.41078 114.101 4.45846 114.317 4.45846C114.458 4.45846 114.584 4.43845 114.698 4.39846C114.812 4.35693 114.911 4.29538 114.994 4.21385C115.077 4.13078 115.141 4.0277 115.186 3.90463L115.703 4.05231C115.648 4.23077 115.557 4.38769 115.429 4.52307C115.3 4.65694 115.142 4.76154 114.953 4.83692C114.765 4.91078 114.553 4.94769 114.317 4.94769Z" fill="#181F47"/>
<path d="M117.982 4.94769C117.656 4.94769 117.375 4.86924 117.14 4.71231C116.905 4.5554 116.723 4.33924 116.596 4.06385C116.47 3.78847 116.407 3.47384 116.407 3.12C116.407 2.76001 116.471 2.44231 116.601 2.16693C116.732 1.89 116.915 1.67385 117.149 1.51847C117.384 1.36154 117.659 1.28308 117.973 1.28308C118.217 1.28308 118.438 1.32923 118.634 1.42154C118.83 1.51385 118.99 1.64308 119.116 1.80923C119.241 1.97539 119.319 2.16924 119.349 2.39078H118.815C118.774 2.22923 118.684 2.08616 118.543 1.96155C118.405 1.83539 118.217 1.77231 117.982 1.77231C117.774 1.77231 117.591 1.8277 117.434 1.93847C117.279 2.0477 117.157 2.20231 117.07 2.40231C116.984 2.60077 116.941 2.83385 116.941 3.10153C116.941 3.37539 116.983 3.61385 117.067 3.81693C117.154 4.02001 117.274 4.1777 117.429 4.29002C117.586 4.40231 117.771 4.45846 117.982 4.45846C118.12 4.45846 118.246 4.43385 118.36 4.38463C118.473 4.3354 118.569 4.26462 118.648 4.17232C118.726 4.08001 118.782 3.96924 118.815 3.84H119.349C119.319 4.04922 119.244 4.23771 119.125 4.40539C119.007 4.57154 118.851 4.70386 118.657 4.80231C118.463 4.89925 118.238 4.94769 117.982 4.94769Z" fill="#181F47"/>
<path d="M121.153 4.95692C120.933 4.95692 120.733 4.91463 120.553 4.83001C120.373 4.74385 120.231 4.62001 120.125 4.45846C120.02 4.29538 119.967 4.09848 119.967 3.8677C119.967 3.66462 120.006 3.5 120.085 3.37384C120.163 3.24615 120.268 3.14615 120.399 3.07386C120.531 3.00154 120.675 2.94771 120.834 2.91232C120.994 2.87538 121.155 2.84617 121.316 2.82462C121.527 2.79692 121.698 2.77615 121.83 2.76231C121.962 2.74693 122.059 2.72153 122.119 2.68616C122.181 2.65077 122.212 2.58924 122.212 2.50154V2.48308C122.212 2.25539 122.151 2.07847 122.029 1.95231C121.908 1.82616 121.725 1.76308 121.479 1.76308C121.224 1.76308 121.024 1.82 120.879 1.93385C120.734 2.0477 120.633 2.16924 120.574 2.29847L120.066 2.11385C120.157 1.89847 120.278 1.73078 120.429 1.61077C120.581 1.48924 120.747 1.40462 120.927 1.35692C121.108 1.3077 121.286 1.28308 121.461 1.28308C121.572 1.28308 121.701 1.29693 121.845 1.32462C121.992 1.35077 122.133 1.40539 122.269 1.48846C122.406 1.57154 122.52 1.69693 122.61 1.86462C122.701 2.03231 122.746 2.25693 122.746 2.53847V4.87385H122.212V4.39386H122.185C122.149 4.47078 122.088 4.55307 122.004 4.64077C121.92 4.72848 121.807 4.80307 121.667 4.86462C121.527 4.92616 121.355 4.95692 121.153 4.95692ZM121.234 4.4677C121.446 4.4677 121.623 4.4254 121.769 4.34076C121.915 4.25617 122.025 4.14692 122.099 4.01308C122.175 3.87923 122.212 3.73846 122.212 3.59078V3.09233C122.19 3.12 122.14 3.1454 122.063 3.16847C121.987 3.18999 121.9 3.20924 121.8 3.22617C121.702 3.24155 121.606 3.25538 121.513 3.2677C121.421 3.27848 121.346 3.28769 121.289 3.2954C121.15 3.31384 121.02 3.34384 120.9 3.38538C120.78 3.4254 120.684 3.48616 120.61 3.56769C120.537 3.6477 120.501 3.75693 120.501 3.8954C120.501 4.08461 120.57 4.22769 120.707 4.32462C120.846 4.42001 121.022 4.4677 121.234 4.4677Z" fill="#181F47"/>
</g>
<defs>
<clipPath id="clip0_28_58">
<rect width="125" height="44" fill="white"/>
</clipPath>
</defs>
</svg>
